<?xml version="1.0" encoding="UTF-8"?>
<svg xmlns="http://www.w3.org/2000/svg" xmlns:xlink="http://www.w3.org/1999/xlink" viewBox="395.53 275.76 419.71 153.06" role="img" aria-label="VM Investments"><title>VM Investments</title>
<path fill-rule="nonzero" fill="#ffffff" fill-opacity="1" d="M 395.53125 278.152344 C 420.503906 281.207031 429.71875 295.519531 438.605469 310.664062 C 459.722656 346.65625 481.417969 382.445312 502.910156 418.308594 C 504.324219 420.667969 505.996094 422.9375 509.941406 428.820312 C 539.863281 377.4375 568.1875 328.804688 597.191406 279 L 549.035156 279 C 578.617188 291.117188 581.351562 297.601562 567.820312 321.011719 C 554.753906 343.621094 541.574219 366.191406 527.566406 390.285156 C 524.8125 386.863281 522.546875 384.605469 521.042969 382.082031 C 506.339844 357.460938 491.714844 332.808594 477.167969 308.132812 C 465.453125 288.257812 469.539062 283.125 498.289062 281.152344 C 499.59375 281.0625 500.824219 280.292969 504.046875 279.140625 C 499.210938 278.6875 496.386719 278.191406 493.5625 278.1875 C 460.886719 278.132812 428.207031 278.152344 395.53125 278.152344 "/>
<path fill-rule="nonzero" fill="#ffffff" fill-opacity="1" d="M 812.9375 275.878906 C 790.78125 275.878906 768.59375 275.433594 746.492188 276.277344 C 742.339844 276.433594 737.800781 281.371094 734.738281 284.785156 C 731.144531 288.796875 728.96875 293.550781 724.355469 300.878906 C 729.777344 297.613281 731.691406 296.460938 734.914062 294.519531 C 734.914062 328.746094 735.574219 361.859375 734.59375 394.949219 C 734.195312 408.488281 724.652344 414.507812 706.679688 416.460938 C 702.890625 416.871094 699.09375 417.246094 695.429688 419.460938 L 815.238281 419.460938 C 813.664062 418.394531 812.832031 417.332031 811.828125 417.226562 C 779.203125 413.824219 773.210938 408.722656 773.167969 383.960938 C 773.125 360.746094 773.160156 337.527344 773.152344 314.308594 C 773.136719 287.054688 778.351562 282.203125 812.9375 275.878906 "/>
<path fill-rule="nonzero" fill="#ffffff" fill-opacity="1" d="M 605.882812 288.332031 C 603.738281 290.25 603.308594 290.507812 603.09375 290.84375 C 584.066406 321.128906 584.109375 321.113281 603.652344 351.101562 C 618.714844 374.214844 633.644531 397.371094 650.714844 423.722656 C 673.6875 387.375 694.960938 353.722656 716.230469 320.066406 C 715.140625 319.644531 714.050781 319.222656 712.960938 318.796875 C 699.003906 340.554688 685.046875 362.308594 669.484375 386.570312 C 647.746094 352.996094 627.164062 321.203125 605.882812 288.332031 "/>
</svg>
